<?xml version="1.0" standalone="no"?>
<!DOCTYPE svg PUBLIC "-//W3C//DTD SVG 20010904//EN"
 "http://www.w3.org/TR/2001/REC-SVG-20010904/DTD/svg10.dtd">
<svg version="1.0" xmlns="http://www.w3.org/2000/svg"
 width="260.000000pt" height="260.000000pt" viewBox="0 0 260.000000 260.000000"
 preserveAspectRatio="xMidYMid meet">
<metadata>
Created by potrace 1.14, written by Peter Selinger 2001-2017
</metadata>
<g transform="translate(0.000000,260.000000) scale(0.100000,-0.100000)"
fill="#000000" stroke="none">
<path d="M1791 1953 c-153 -32 -312 -137 -398 -263 -83 -122 -123 -255 -118
-395 2 -49 5 -99 8 -110 24 -96 31 -116 38 -121 5 -3 9 -12 9 -20 0 -22 80
-143 126 -191 124 -129 270 -192 454 -199 112 -4 195 12 293 55 148 65 277
201 340 361 32 82 38 114 42 224 5 143 -34 273 -118 396 -144 210 -421 317
-676 263z"/>
<path d="M1030 1683 c-173 -31 -325 -161 -391 -334 -110 -288 67 -614 370
-685 53 -13 187 -12 246 1 40 8 143 60 180 89 l30 24 -39 39 c-45 44 -114 148
-143 214 -49 110 -67 259 -49 387 8 58 46 176 67 210 7 11 11 24 7 27 -25 25
-196 42 -278 28z"/>
<path d="M329 1393 c-133 -34 -226 -112 -277 -235 -28 -65 -31 -82 -28 -159 2
-75 7 -96 36 -155 35 -72 87 -135 129 -159 83 -46 149 -66 226 -70 58 -3 197
45 232 80 7 7 16 15 20 17 5 2 19 15 32 31 l25 27 -27 28 c-61 64 -119 187
-133 285 -9 61 -4 172 10 225 16 60 15 61 -61 81 -66 18 -125 19 -184 4z"/>
</g>
</svg>
