<svg width="136" height="170" viewBox="0 0 136 170" fill="none" xmlns="http://www.w3.org/2000/svg">
<path d="M116.358 44.3197C116.358 44.3197 100.342 44.0721 94.4277 42.5625C88.5104 41.0407 74.2902 33.5417 74.2902 33.5417C72.6555 33.1269 70.9963 34.1101 70.5788 35.7462L67.9091 46.2019L72.6011 72.5818C72.7167 73.2455 72.8146 73.9296 72.8826 74.6164C72.9778 75.5643 73.024 76.519 73.0186 77.4588C78.6803 77.0127 84.3352 77.8695 89.5725 79.9231C89.5848 79.9231 89.5929 79.9258 89.5984 79.9258C92.4326 80.9594 95.0955 82.3085 97.5299 83.931C98.7049 84.7198 99.3741 85.7725 99.5658 86.8129C100.002 88.1157 99.8011 89.4621 98.9293 90.3434C97.4238 91.8761 94.8997 91.8449 93.1017 90.5841C91.841 89.6933 90.5204 88.9045 89.1536 88.2273C89.1183 88.2082 89.0802 88.1905 89.0448 88.181C83.9217 85.8649 77.882 84.9007 71.5811 85.8405C70.5325 88.8923 68.9373 91.7252 66.8945 94.199C70.0593 97.7908 74.3011 100.509 79.2855 101.782C91.9145 105.014 104.761 97.8969 108.865 85.7181C109.071 85.1224 109.249 84.509 109.407 83.8929L118.557 48.0352C118.973 46.4018 117.986 44.7345 116.358 44.3197ZM86.9627 59.7257C86.114 63.0387 82.748 65.0366 79.45 64.1866C76.1439 63.3433 74.1515 59.9719 74.9933 56.6657C75.8406 53.3501 79.2053 51.3536 82.5073 52.2036C85.8094 53.0454 87.8018 56.4155 86.9627 59.7257ZM104.662 64.26C103.821 67.5702 100.458 69.564 97.1532 68.7208C93.847 67.8708 91.8505 64.4993 92.7005 61.1918C93.5478 57.8816 96.9124 55.8878 100.212 56.731C103.517 57.581 105.51 60.9511 104.662 64.26Z" fill="#8B2B7F"/>
<path d="M68.3836 83.8345C68.914 82.0882 69.2363 80.2658 69.326 78.4026C69.3356 78.3455 69.3356 78.2829 69.3356 78.2231C69.3818 77.1569 69.3519 76.0675 69.2431 74.9741C69.1819 74.3879 69.1016 73.8017 68.9983 73.2237L65.7193 54.7821L62.5192 36.7839C62.4159 36.1882 61.8719 35.7598 61.2708 35.7775C59.2539 36.6506 46.2033 42.2565 40.4124 43.2861C38.3874 43.6478 35.1397 43.8273 30.7564 43.8273C27.9888 43.8273 25.175 43.7539 22.8807 43.6764C20.5959 43.5948 18.8347 43.5023 18.1955 43.4629C17.9466 43.5472 17.7276 43.709 17.5685 43.9293C17.3849 44.1986 17.3101 44.5209 17.374 44.8433L23.8531 81.2831C23.9483 81.8516 24.0788 82.4309 24.223 83.0117C26.8247 93.1464 35.9435 100.229 46.3978 100.229C47.7456 100.229 49.1042 100.108 50.4465 99.8661C56.266 98.8203 61.23 95.6175 64.6109 91.1961C65.8064 89.6376 66.7992 87.924 67.5662 86.1043C67.8776 85.3672 68.1524 84.6069 68.3836 83.8345ZM51.2136 51.9887C54.5728 51.3903 57.7783 53.6302 58.3767 56.9949C58.9778 60.3595 56.7447 63.5718 53.3773 64.1743C50.0249 64.7713 46.8153 62.5314 46.2169 59.1681C45.6185 55.8049 47.8557 52.5925 51.2136 51.9887ZM28.2282 62.3791C27.6244 59.0145 29.8602 55.7994 33.2208 55.1997C36.5813 54.604 39.7855 56.8412 40.3893 60.2085C40.9877 63.5732 38.7505 66.7814 35.3927 67.3853C32.0321 67.985 28.8266 65.7424 28.2282 62.3791ZM61.2286 83.0579C61.1783 83.0919 61.1307 83.1259 61.0749 83.1558C53.1706 87.9158 43.7771 89.5886 34.7127 87.8628C31.8648 87.3201 30.2192 84.8721 30.9632 82.8621C31.7016 80.8411 34.0055 79.8225 36.1692 80.225C43.3568 81.6 50.8056 80.2645 57.0765 76.4932C58.189 75.8309 59.5259 75.6146 60.7213 75.8975C61.5496 76.0811 62.3084 76.5013 62.8742 77.1677C64.2288 78.7589 63.5814 81.5442 61.2286 83.0579Z" fill="#8B2B7F"/>
</svg>
