<svg width="120" height="150" viewBox="0 0 120 150" fill="none" xmlns="http://www.w3.org/2000/svg">
<path d="M50.856 48.18C50.8536 52.356 47.0532 56.154 42.8772 56.154C38.7012 56.154 34.9008 52.356 34.8984 48.18C34.896 44.0016 38.6976 40.1976 42.8772 40.1976C47.0556 40.1976 50.8584 44.0016 50.856 48.18Z" fill="#8B2B7F"/>
<path d="M42.8782 59.316C39.5146 59.316 37.0114 61.584 35.9014 64.7544C32.2546 74.3196 28.6198 83.8908 24.949 93.4476C24.6502 94.2384 24.499 95.1036 24.499 95.9976C24.499 99.9744 27.7234 103.198 31.699 103.198C39.151 103.198 46.6018 103.198 54.0538 103.198C58.0306 103.198 61.2538 99.9732 61.2538 95.9976C61.2538 95.1024 61.1026 94.2372 60.8038 93.4476C57.133 83.8908 53.4982 74.3196 49.8514 64.7544C48.7414 61.584 46.2394 59.316 42.8746 59.316" fill="#8B2B7F"/>
<path d="M81.7564 32.214C81.754 36.39 77.9536 40.188 73.7776 40.188C69.6016 40.188 65.8012 36.39 65.7988 32.214C65.7964 28.0356 69.598 24.2316 73.7776 24.2316C77.956 24.2316 81.7588 28.0356 81.7564 32.214Z" fill="#8B2B7F"/>
<path d="M70.7739 87.24C67.4103 87.24 64.9071 84.972 63.7971 81.8016L58.2459 53.1084C57.9471 52.3176 57.7959 51.4524 57.7959 50.5584C57.7959 46.5816 61.0203 43.3584 64.9959 43.3584C72.4479 43.3584 75.0975 43.3584 82.5495 43.3584C86.5263 43.3584 89.7495 46.5828 89.7495 50.5584C89.7495 51.4536 89.5983 52.3188 89.2995 53.1084L83.7483 81.8016C82.6383 84.972 80.1363 87.24 76.7715 87.24" fill="#8B2B7F"/>
<path d="M106.56 56.568C106.559 59.556 103.84 62.274 100.852 62.274C97.8639 62.274 95.1448 59.556 95.1436 56.568C95.1424 53.5776 97.8615 50.856 100.852 50.856C103.842 50.856 106.563 53.5776 106.56 56.568Z" fill="#8B2B7F"/>
<path d="M100.848 64.5383C98.4358 64.5383 96.6502 66.1619 95.8558 68.4299C93.2458 75.2747 90.6454 82.1231 88.0198 88.9619C87.8062 89.5271 87.6982 90.1463 87.6982 90.7871C87.6982 93.6335 90.0046 95.9399 92.851 95.9399C98.1826 95.9399 103.514 95.9399 108.846 95.9399C111.691 95.9399 113.999 93.6335 113.999 90.7871C113.999 90.1463 113.891 89.5283 113.677 88.9619C111.051 82.1243 108.45 75.2759 105.841 68.4299C105.047 66.1619 103.256 64.5383 100.849 64.5383" fill="#8B2B7F"/>
<path d="M23.1424 39.744C23.1412 42.732 20.422 45.45 17.434 45.45C14.446 45.45 11.7268 42.732 11.7256 39.744C11.7244 36.7536 14.4436 34.032 17.434 34.032C20.4244 34.032 23.1448 36.7536 23.1424 39.744Z" fill="#8B2B7F"/>
<path d="M15.2856 79.1147C12.8736 79.1147 11.088 77.4911 10.2936 75.2231L6.3216 54.6911C6.108 54.1259 6 53.5067 6 52.8659C6 50.0195 8.3064 47.7131 11.1528 47.7131C16.4844 47.7131 18.3768 47.7131 23.7132 47.7131C26.5584 47.7131 28.866 50.0195 28.866 52.8659C28.866 53.5067 28.758 54.1247 28.5444 54.6911L24.5724 75.2231C23.778 77.4911 21.9876 79.1147 19.5804 79.1147" fill="#8B2B7F"/>
</svg>
