<svg width="101" height="126" viewBox="0 0 101 126" fill="none" xmlns="http://www.w3.org/2000/svg">
<path d="M85.2188 88.2H82.0625V25.2C82.0625 23.4612 80.6485 22.05 78.9062 22.05H66.2812C66.2812 13.3529 59.2144 6.30005 50.5 6.30005C41.7856 6.30005 34.7188 13.3529 34.7188 22.05H22.0938C20.3515 22.05 18.9375 23.4612 18.9375 25.2V88.2H15.7812C14.039 88.2 12.625 89.6112 12.625 91.35C12.625 93.0888 14.039 94.5 15.7812 94.5H85.2188C86.961 94.5 88.375 93.0888 88.375 91.35C88.375 89.6112 86.961 88.2 85.2188 88.2ZM37.875 63H28.4062V53.55H37.875V63ZM37.875 47.25H28.4062V37.8H37.875V47.25ZM50.5 9.45005C57.4722 9.45005 63.125 15.0917 63.125 22.05C63.125 29.0084 57.4722 34.65 50.5 34.65C43.5278 34.65 37.875 29.0084 37.875 22.05C37.875 15.0917 43.5278 9.45005 50.5 9.45005ZM45.7656 47.25V37.8H55.2344V47.25H45.7656ZM55.2344 53.55V63H45.7656V53.55H55.2344ZM59.9688 88.2H41.0312V69.3H59.9688V88.2ZM72.5938 63H63.125V53.55H72.5938V63ZM72.5938 47.25H63.125V37.8H72.5938V47.25Z" fill="#8B2B7F"/>
<path d="M48.1328 29.925H52.8672V24.4125H58.3906V19.6875H52.8672V14.175H48.1328V19.6875H42.6094V24.4125H48.1328V29.925Z" fill="#8B2B7F"/>
</svg>
